<?xml version="1.0" encoding="UTF-8" standalone="no"?>
<!-- Created with Inkscape (http://www.inkscape.org/) -->

<svg
   xmlns:dc="http://purl.org/dc/elements/1.1/"
   xmlns:cc="http://creativecommons.org/ns#"
   xmlns:rdf="http://www.w3.org/1999/02/22-rdf-syntax-ns#"
   xmlns:svg="http://www.w3.org/2000/svg"
   xmlns="http://www.w3.org/2000/svg"
   xmlns:sodipodi="http://sodipodi.sourceforge.net/DTD/sodipodi-0.dtd"
   xmlns:inkscape="http://www.inkscape.org/namespaces/inkscape"
   width="744.09448819"
   height="1052.3622047"
   id="svg2"
   version="1.1"
   inkscape:version="0.48.4 r9939"
   sodipodi:docname="force_cube_fracture.svg">
  <metadata
     id="metadata17">
    <rdf:RDF>
      <cc:Work
         rdf:about="">
        <dc:format>image/svg+xml</dc:format>
        <dc:type
           rdf:resource="http://purl.org/dc/dcmitype/StillImage" />
        <dc:title />
      </cc:Work>
    </rdf:RDF>
  </metadata>
  <defs
     id="defs4" />
  <sodipodi:namedview
     id="base"
     pagecolor="#ffffff"
     bordercolor="#666666"
     borderopacity="1.0"
     inkscape:pageopacity="0.0"
     inkscape:pageshadow="2"
     inkscape:zoom="8"
     inkscape:cx="104.83809"
     inkscape:cy="1003.753"
     inkscape:document-units="px"
     inkscape:current-layer="layer2"
     showgrid="false"
     inkscape:object-nodes="true"
     inkscape:window-width="1920"
     inkscape:window-height="1030"
     inkscape:window-x="0"
     inkscape:window-y="0"
     inkscape:window-maximized="1" />
  <g
     inkscape:label="Contours"
     inkscape:groupmode="layer"
     id="layer1"
     style="display:inline">
    <path
       style="fill:none;stroke:#000000;stroke-width:1px;stroke-linecap:butt;stroke-linejoin:miter;stroke-opacity:1"
       d="M 200,100 200,0"
       id="path2989"
       inkscape:connector-curvature="0"
       type="1" />
    <path
       style="fill:none;stroke:#000000;stroke-width:1px;stroke-linecap:butt;stroke-linejoin:miter;stroke-opacity:1"
       d="m 200,100 -200,0 0,0"
       id="path2991"
       inkscape:connector-curvature="0"
       type="2" />
    <path
       style="fill:none;stroke:#000000;stroke-width:1px;stroke-linecap:butt;stroke-linejoin:miter;stroke-opacity:1"
       d="M 0,0 200,0"
       id="path2993"
       inkscape:connector-curvature="0"
       type="4" />
    <path
       style="fill:none;stroke:#000000;stroke-width:1px;stroke-linecap:butt;stroke-linejoin:miter;stroke-opacity:1"
       d="M 0,100 0,0"
       id="path3001"
       inkscape:connector-curvature="0"
       type="3" />
    <path
       style="fill:none;stroke:#000000;stroke-width:0.40286389;display:inline"
       d="m 67.032336,38.023037 c 0.674009,0.21233 0.326953,1.055289 0.203782,1.572323 -1.587824,6.58536 -3.175659,13.170723 -4.763495,19.756087 -0.202484,0.912299 -1.537771,0.221079 -1.033007,-0.550753 1.634964,-6.780794 3.269918,-13.561586 4.904873,-20.342382 0.07009,-0.319029 0.402757,-0.516937 0.687847,-0.435275 z"
       id="rect3047-4-4"
       inkscape:connector-curvature="0"
       c1="0.3"
       c2="0.0001"
       rho="0.25" />
    <path
       style="fill:none;stroke:#000000;stroke-width:0.40286389;display:inline"
       d="m 78.854472,38.017654 c 0.549511,0.129518 0.431952,0.786133 0.29075,1.211649 -1.616817,6.705587 -3.233646,13.411174 -4.850463,20.116761 -0.182626,0.83223 -1.421511,0.36355 -1.065612,-0.415499 1.645822,-6.825878 3.291655,-13.651756 4.937477,-20.477635 0.0721,-0.320688 0.400401,-0.51579 0.687848,-0.435276 z"
       id="rect3047-2-0"
       inkscape:connector-curvature="0" />
    <path
       style="fill:none;stroke:#000000;stroke-width:0.40286389;display:inline"
       d="m 72.951751,38.023037 c 0.674008,0.21233 0.326952,1.055289 0.203793,1.572323 -1.587835,6.58536 -3.175671,13.170723 -4.763507,19.756087 -0.202479,0.912299 -1.537769,0.221079 -1.033008,-0.550753 1.634966,-6.780794 3.26992,-13.561586 4.904874,-20.342382 0.07009,-0.319029 0.402757,-0.516937 0.687848,-0.435275 z"
       id="rect3047-4-2-07"
       inkscape:connector-curvature="0"
       c1="0.3"
       c2="0.0001"
       rho="0.25" />
    <path
       style="fill:none;stroke:#000000;stroke-width:0.40286389;display:inline"
       d="m 84.790579,38.023038 c 0.674009,0.21233 0.326953,1.055289 0.203794,1.572323 -1.587836,6.58536 -3.175671,13.170722 -4.763507,19.756086 -0.202479,0.912299 -1.537769,0.221079 -1.033009,-0.550753 1.634966,-6.780794 3.269921,-13.561585 4.904875,-20.342381 0.07009,-0.319029 0.402757,-0.516936 0.687847,-0.435275 z"
       id="rect3047-4-2-0-4"
       inkscape:connector-curvature="0"
       c1="0.3"
       c2="0.0001"
       rho="0.25" />
    <path
       style="fill:none;stroke:#000000;stroke-width:0.40286389;display:inline"
       d="m 90.709994,38.023038 c 0.674008,0.21233 0.326952,1.055289 0.203793,1.572323 -1.587835,6.58536 -3.175671,13.170722 -4.763507,19.756086 -0.202479,0.912299 -1.537769,0.221079 -1.033009,-0.550753 1.634967,-6.780794 3.269921,-13.561585 4.904875,-20.342381 0.07009,-0.319029 0.402757,-0.516936 0.687848,-0.435275 z"
       id="rect3047-4-2-9-5"
       inkscape:connector-curvature="0"
       c1="0.3"
       c2="0.0001"
       rho="0.25" />
    <path
       style="fill:none;stroke:#000000;stroke-width:0.40286389;display:inline"
       d="m 96.62941,38.023038 c 0.674,0.21233 0.32696,1.055289 0.20379,1.572323 -1.58783,6.58536 -3.17567,13.170722 -4.763505,19.756086 -0.20248,0.912299 -1.537769,0.221079 -1.033009,-0.550753 1.634966,-6.780794 3.269924,-13.561585 4.904874,-20.342381 0.0701,-0.319029 0.40275,-0.516936 0.68785,-0.435275 z"
       id="rect3047-4-2-1-0"
       inkscape:connector-curvature="0"
       c1="0.3"
       c2="0.0001"
       rho="0.25" />
    <path
       style="fill:none;stroke:#000000;stroke-width:0.40286389;display:inline"
       d="m 102.54882,38.023038 c 0.67402,0.21233 0.32696,1.055289 0.2038,1.572323 -1.58784,6.58536 -3.17568,13.170722 -4.76351,19.756086 -0.20248,0.912299 -1.53777,0.221079 -1.03301,-0.550753 1.63497,-6.780794 3.26993,-13.561585 4.90488,-20.342381 0.0701,-0.319029 0.40276,-0.516936 0.68784,-0.435275 z"
       id="rect3047-4-2-2-1"
       inkscape:connector-curvature="0"
       c1="0.3"
       c2="0.0001"
       rho="0.25" />
    <path
       style="fill:none;stroke:#000000;stroke-width:0.40286389;display:inline"
       d="m 108.46824,38.023038 c 0.67401,0.21233 0.32695,1.055289 0.20379,1.572323 -1.58784,6.58536 -3.17567,13.170722 -4.7635,19.756086 -0.20249,0.912299 -1.53778,0.221079 -1.03301,-0.550753 1.63496,-6.780794 3.26992,-13.561585 4.90487,-20.342381 0.0701,-0.319029 0.40276,-0.516936 0.68785,-0.435275 z"
       id="rect3047-4-2-4-8"
       inkscape:connector-curvature="0"
       c1="0.3"
       c2="0.0001"
       rho="0.25" />
    <path
       style="fill:none;stroke:#000000;stroke-width:0.40286389;display:inline"
       d="m 114.38765,38.023038 c 0.67401,0.21233 0.32695,1.055289 0.2038,1.572323 -1.58784,6.58536 -3.17567,13.170722 -4.76351,19.756086 -0.20248,0.912299 -1.53776,0.221079 -1.03301,-0.550753 1.63497,-6.780794 3.26992,-13.561585 4.90488,-20.342381 0.0701,-0.319029 0.40275,-0.516936 0.68784,-0.435275 z"
       id="rect3047-4-2-3-0"
       inkscape:connector-curvature="0"
       c1="0.3"
       c2="0.0001"
       rho="0.25" />
    <path
       style="fill:none;stroke:#000000;stroke-width:0.40286389;display:inline"
       d="m 120.30707,38.023038 c 0.674,0.21233 0.32695,1.055289 0.20379,1.572323 -1.58784,6.58536 -3.17567,13.170722 -4.76351,19.756086 -0.20247,0.912299 -1.53776,0.221079 -1.03301,-0.550753 1.63497,-6.780794 3.26992,-13.561585 4.90488,-20.342381 0.0701,-0.319029 0.40276,-0.516936 0.68785,-0.435275 z"
       id="rect3047-4-2-5-1"
       inkscape:connector-curvature="0"
       c1="0.3"
       c2="0.0001"
       rho="0.25" />
    <path
       style="fill:none;stroke:#000000;stroke-width:0.40286389;display:inline"
       d="m 126.22648,38.023038 c 0.67401,0.21233 0.32695,1.055289 0.20379,1.572323 -1.58783,6.58536 -3.17566,13.170722 -4.7635,19.756086 -0.20248,0.912299 -1.53777,0.221079 -1.03302,-0.550753 1.63497,-6.780794 3.26993,-13.561585 4.90488,-20.342381 0.0701,-0.319029 0.40276,-0.516936 0.68785,-0.435275 z"
       id="rect3047-4-2-18-2"
       inkscape:connector-curvature="0"
       c1="0.3"
       c2="0.0001"
       rho="0.25" />
    <path
       style="fill:none;stroke:#000000;stroke-width:0.40286389;display:inline"
       d="m 132.1459,38.023038 c 0.674,0.21233 0.32695,1.055289 0.20379,1.572323 -1.58783,6.58536 -3.17567,13.170722 -4.76351,19.756086 -0.20248,0.912299 -1.53777,0.221079 -1.033,-0.550753 1.63496,-6.780794 3.26991,-13.561585 4.90487,-20.342381 0.0701,-0.319029 0.40275,-0.516936 0.68785,-0.435275 z"
       id="rect3047-4-2-94-5"
       inkscape:connector-curvature="0"
       c1="0.3"
       c2="0.0001"
       rho="0.25" />
  </g>
  <g
     inkscape:groupmode="layer"
     id="layer2"
     inkscape:label="BackGround"
     style="display:inline">
    <rect
       style="opacity:0.6804;fill:none;stroke:#000000;stroke-width:0.15488011;stroke-linecap:round;stroke-linejoin:miter;stroke-miterlimit:4;stroke-opacity:1;stroke-dasharray:none;stroke-dashoffset:0;display:inline"
       id="rect2989-4"
       width="200"
       height="100"
       x="0"
       y="0"
       type="0"
       c1="1.0"
       c2="0.5"
       rho="0.75" />
    <path
       style="fill:none;stroke:#000000;stroke-width:0.40286389;display:inline"
       d="m 67.032335,38.023037 c 0.674007,0.21233 0.326954,1.055289 0.203787,1.572323 -1.587833,6.58536 -3.175667,13.170723 -4.7635,19.756087 -0.202485,0.912299 -1.537771,0.221079 -1.033007,-0.550753 1.634961,-6.780794 3.269916,-13.561586 4.90487,-20.342382 0.07009,-0.319029 0.402759,-0.516937 0.68785,-0.435275 z"
       id="rect3047-4"
       inkscape:connector-curvature="0"
       c1="0.3"
       c2="0.0001"
       rho="0.25" />
    <path
       style="fill:none;stroke:#000000;stroke-width:0.40286389;display:inline"
       d="m 78.854472,38.017654 c 0.549511,0.129518 0.431952,0.786133 0.29075,1.211649 -1.616817,6.705587 -3.233646,13.411174 -4.850463,20.116761 -0.182626,0.83223 -1.421511,0.36355 -1.065612,-0.415499 1.645822,-6.825878 3.291655,-13.651756 4.937477,-20.477635 0.0721,-0.320688 0.400401,-0.51579 0.687848,-0.435276 z"
       id="rect3047-2"
       inkscape:connector-curvature="0"
       c1="0.3"
       c2="0.0001"
       rho="0.25" />
    <path
       style="fill:none;stroke:#000000;stroke-width:0.40286389;display:inline"
       d="m 72.951748,38.023037 c 0.674009,0.21233 0.326953,1.055289 0.203794,1.572323 -1.587836,6.58536 -3.175671,13.170723 -4.763507,19.756087 -0.202479,0.912299 -1.537769,0.221079 -1.033009,-0.550753 1.634966,-6.780794 3.269921,-13.561586 4.904875,-20.342382 0.07008,-0.319029 0.402757,-0.516937 0.687847,-0.435275 z"
       id="rect3047-4-2"
       inkscape:connector-curvature="0"
       c1="0.3"
       c2="0.0001"
       rho="0.25" />
    <path
       style="fill:none;stroke:#000000;stroke-width:0.40286389;display:inline"
       d="m 84.790577,38.023038 c 0.674008,0.21233 0.326953,1.055289 0.203794,1.572323 -1.587836,6.58536 -3.175672,13.170722 -4.763507,19.756086 -0.20248,0.912299 -1.537769,0.221079 -1.033009,-0.550753 1.634966,-6.780794 3.26992,-13.561585 4.904874,-20.342381 0.07009,-0.319029 0.402757,-0.516936 0.687848,-0.435275 z"
       id="rect3047-4-2-0"
       inkscape:connector-curvature="0"
       c1="0.3"
       c2="0.0001"
       rho="0.25" />
    <path
       style="fill:none;stroke:#000000;stroke-width:0.40286389;display:inline"
       d="m 90.709992,38.023038 c 0.674008,0.21233 0.326952,1.055289 0.203793,1.572323 -1.587836,6.58536 -3.175671,13.170722 -4.763507,19.756086 -0.20248,0.912299 -1.537769,0.221079 -1.033009,-0.550753 1.634966,-6.780794 3.269921,-13.561585 4.904874,-20.342381 0.07009,-0.319029 0.402758,-0.516936 0.687849,-0.435275 z"
       id="rect3047-4-2-9"
       inkscape:connector-curvature="0"
       c1="0.3"
       c2="0.0001"
       rho="0.25" />
    <path
       style="fill:none;stroke:#000000;stroke-width:0.40286389;display:inline"
       d="m 96.62941,38.023038 c 0.674,0.21233 0.32694,1.055289 0.20379,1.572323 -1.58784,6.58536 -3.175672,13.170722 -4.763507,19.756086 -0.20248,0.912299 -1.537769,0.221079 -1.03301,-0.550753 C 92.67165,52.0199 94.3066,45.239109 95.94156,38.458313 c 0.0701,-0.319029 0.40275,-0.516936 0.68785,-0.435275 z"
       id="rect3047-4-2-1"
       inkscape:connector-curvature="0"
       c1="0.3"
       c2="0.0001"
       rho="0.25" />
    <path
       style="fill:none;stroke:#000000;stroke-width:0.40286389;display:inline"
       d="m 102.54882,38.023038 c 0.67402,0.21233 0.32696,1.055289 0.2038,1.572323 -1.58784,6.58536 -3.17568,13.170722 -4.76351,19.756086 -0.20248,0.912299 -1.53777,0.221079 -1.03302,-0.550753 1.63497,-6.780794 3.26994,-13.561585 4.90489,-20.342381 0.0701,-0.319029 0.40276,-0.516936 0.68784,-0.435275 z"
       id="rect3047-4-2-2"
       inkscape:connector-curvature="0"
       c1="0.3"
       c2="0.0001"
       rho="0.25" />
    <path
       style="fill:none;stroke:#000000;stroke-width:0.40286389;display:inline"
       d="m 108.46824,38.023038 c 0.67401,0.21233 0.32695,1.055289 0.20379,1.572323 -1.58784,6.58536 -3.17567,13.170722 -4.7635,19.756086 -0.20249,0.912299 -1.53778,0.221079 -1.03301,-0.550753 1.63496,-6.780794 3.26992,-13.561585 4.90487,-20.342381 0.0701,-0.319029 0.40276,-0.516936 0.68785,-0.435275 z"
       id="rect3047-4-2-4"
       inkscape:connector-curvature="0"
       c1="0.3"
       c2="0.0001"
       rho="0.25" />
    <path
       style="fill:none;stroke:#000000;stroke-width:0.40286389;display:inline"
       d="m 114.38765,38.023038 c 0.67401,0.21233 0.32695,1.055289 0.2038,1.572323 -1.58784,6.58536 -3.17567,13.170722 -4.76351,19.756086 -0.20248,0.912299 -1.53776,0.221079 -1.03301,-0.550753 1.63497,-6.780794 3.26992,-13.561585 4.90488,-20.342381 0.0701,-0.319029 0.40275,-0.516936 0.68784,-0.435275 z"
       id="rect3047-4-2-3"
       inkscape:connector-curvature="0"
       c1="0.3"
       c2="0.0001"
       rho="0.25" />
    <path
       style="fill:none;stroke:#000000;stroke-width:0.40286389;display:inline"
       d="m 120.30707,38.023038 c 0.674,0.21233 0.32695,1.055289 0.20379,1.572323 -1.58784,6.58536 -3.17567,13.170722 -4.76351,19.756086 -0.20247,0.912299 -1.53776,0.221079 -1.03301,-0.550753 1.63497,-6.780794 3.26992,-13.561585 4.90488,-20.342381 0.0701,-0.319029 0.40276,-0.516936 0.68785,-0.435275 z"
       id="rect3047-4-2-5"
       inkscape:connector-curvature="0"
       c1="0.3"
       c2="0.0001"
       rho="0.25" />
    <path
       style="fill:none;stroke:#000000;stroke-width:0.40286389;display:inline"
       d="m 126.22648,38.023038 c 0.67401,0.21233 0.32695,1.055289 0.20379,1.572323 -1.58783,6.58536 -3.17566,13.170722 -4.7635,19.756086 -0.20248,0.912299 -1.53777,0.221079 -1.03302,-0.550753 1.63497,-6.780794 3.26993,-13.561585 4.90488,-20.342381 0.0701,-0.319029 0.40276,-0.516936 0.68785,-0.435275 z"
       id="rect3047-4-2-18"
       inkscape:connector-curvature="0"
       c1="0.3"
       c2="0.0001"
       rho="0.25" />
    <path
       style="fill:none;stroke:#000000;stroke-width:0.40286389;display:inline"
       d="m 132.1459,38.023038 c 0.674,0.21233 0.32695,1.055289 0.20379,1.572323 -1.58783,6.58536 -3.17567,13.170722 -4.76351,19.756086 -0.20248,0.912299 -1.53777,0.221079 -1.033,-0.550753 1.63496,-6.780794 3.26991,-13.561585 4.90487,-20.342381 0.0701,-0.319029 0.40275,-0.516936 0.68785,-0.435275 z"
       id="rect3047-4-2-94"
       inkscape:connector-curvature="0"
       c1="0.3"
       c2="0.0001"
       rho="0.25" />
  </g>
</svg>
