<?xml version="1.0" encoding="UTF-8" standalone="no"?>
<!-- Created with Inkscape (http://www.inkscape.org/) -->

<svg
   xmlns:dc="http://purl.org/dc/elements/1.1/"
   xmlns:cc="http://creativecommons.org/ns#"
   xmlns:rdf="http://www.w3.org/1999/02/22-rdf-syntax-ns#"
   xmlns:svg="http://www.w3.org/2000/svg"
   xmlns="http://www.w3.org/2000/svg"
   xmlns:sodipodi="http://sodipodi.sourceforge.net/DTD/sodipodi-0.dtd"
   xmlns:inkscape="http://www.inkscape.org/namespaces/inkscape"
   width="744.09448819"
   height="1052.3622047"
   id="svg2"
   version="1.1"
   inkscape:version="0.48.4 r9939"
   sodipodi:docname="plasts.svg">
  <metadata
     id="metadata17">
    <rdf:RDF>
      <cc:Work
         rdf:about="">
        <dc:format>image/svg+xml</dc:format>
        <dc:type
           rdf:resource="http://purl.org/dc/dcmitype/StillImage" />
        <dc:title />
      </cc:Work>
    </rdf:RDF>
  </metadata>
  <defs
     id="defs4" />
  <sodipodi:namedview
     id="base"
     pagecolor="#ffffff"
     bordercolor="#666666"
     borderopacity="1.0"
     inkscape:pageopacity="0.0"
     inkscape:pageshadow="2"
     inkscape:zoom="0.25"
     inkscape:cx="825"
     inkscape:cy="-736.05442"
     inkscape:document-units="px"
     inkscape:current-layer="layer2"
     showgrid="false"
     inkscape:object-nodes="true"
     inkscape:window-width="1366"
     inkscape:window-height="718"
     inkscape:window-x="0"
     inkscape:window-y="0"
     inkscape:window-maximized="1" />
  <g
     inkscape:label="Contours"
     inkscape:groupmode="layer"
     id="layer1"
     style="display:inline">
    <path
       style="fill:none;stroke:#000000;stroke-width:1px;stroke-linecap:butt;stroke-linejoin:miter;stroke-opacity:1"
       d="m 0,964.36218 c 0,0 762.4994,-9.43923 1174.4994,-205.43923 412,-196 691.5006,-98.56077 753.5006,17.43923 62,116 362,-204 488,-126 126,78 271.0058,-111.5363 271.0058,-111.5363"
       id="path3003"
       inkscape:connector-curvature="0"
       sodipodi:nodetypes="csssc" />
    <path
       style="fill:none;stroke:#000000;stroke-width:1px;stroke-linecap:butt;stroke-linejoin:miter;stroke-opacity:1"
       d="m 1.8092492,1244.8999 c 0,0 1724.6900508,-241.9769 1172.6901508,-485.97695"
       id="path3005"
       inkscape:connector-curvature="0"
       sodipodi:nodetypes="cc" />
    <path
       style="fill:none;stroke:#000000;stroke-width:1px;stroke-linecap:butt;stroke-linejoin:miter;stroke-opacity:1"
       d="M 2.8284271,1445.5136 C 878.22662,1540.2659 1050.7607,1380.4597 1050.7607,1380.4597 c 0,0 573.2393,-312.0975 889.2393,-88.0975 316,224 1061.6683,426.0945 1058.1327,383.6681"
       id="path3011"
       inkscape:connector-curvature="0"
       sodipodi:nodetypes="ccsc" />
    <path
       style="fill:none;stroke:#000000;stroke-width:1px;stroke-linecap:butt;stroke-linejoin:miter;stroke-opacity:1"
       d="m 839.625,1738.8622 c 106.42071,619.1751 1104.3061,-158.4513 740.8371,-271.4248 0,0 -172.4621,-77.0752 -740.8371,271.4248 z"
       id="path3013"
       inkscape:connector-curvature="0"
       sodipodi:nodetypes="cc" />
    <path
       style="fill:none;stroke:#000000;stroke-width:1px;stroke-linecap:butt;stroke-linejoin:miter;stroke-opacity:1"
       d="m 1.0606602,2069.8888 c 0,0 370.9393398,-437.5266 558.9393398,-173.5266 188,264 809.9764,348.168 1005.9764,272.168 196,-76 502.0236,-688.168 634.0236,-468.168 132,220 742,465.5 798,430"
       id="path3015"
       inkscape:connector-curvature="0"
       sodipodi:nodetypes="csssc" />
    <path
       style="fill:none;stroke:#000000;stroke-width:1px;stroke-linecap:butt;stroke-linejoin:miter;stroke-opacity:1"
       d="m 1565.9764,2168.5302 c 0,0 1397.0236,62.832 1432.0236,-38.168"
       id="path3017"
       inkscape:connector-curvature="0"
       sodipodi:nodetypes="cc" />
    <path
       style="fill:none;stroke:#000000;stroke-width:1px;stroke-linecap:butt;stroke-linejoin:miter;stroke-opacity:1"
       d="m 2404.1631,920.84032 c 251.73,9.89949 240.4162,149.90668 240.4162,149.90668 l -381.8376,-11.3138 c 0,0 -125.5058,100.6319 21.2132,106.066 152.7351,5.657 567.0996,50.9118 405.8793,83.4387 -161.2204,32.5269 -550.1291,69.2964 -630.7393,-49.4975 -80.6101,-118.7939 120.9149,-242.41563 179.6052,-254.55845 41.0121,-8.48528 165.463,-24.04163 165.463,-24.04163 z"
       id="path3023"
       inkscape:connector-curvature="0"
       sodipodi:nodetypes="cccssssc" />
    <path
       style="fill:none;stroke:#000000;stroke-width:1px;stroke-linecap:butt;stroke-linejoin:miter;stroke-opacity:1"
       d="m 1.6409546,3002.7212 2996.7179454,0 -0.3589,-872.359 0.1327,-454.3319 0.3673,-1130.79312 -0.1411,-539.2339695 -2996.7179454,0 L 0,616.36218 l 0,348 2.8284271,481.15142 -1.7677669,624.3752 z"
       id="path3025"
       inkscape:connector-curvature="0" />
    <path
       style="fill:none;stroke:#000000;stroke-width:1px;stroke-linecap:butt;stroke-linejoin:miter;stroke-opacity:1"
       d="m 1.75,433.11218 c 0,0 860.92027,-254.73398 1370.0372,-39.77352 509.1168,214.96046 1250.1647,-158.39191 1295.4196,-118.79394 45.2548,39.59798 19.799,264.28116 19.799,264.28116 0,0 301.7442,-7.7137 311.2442,-20.7137"
       id="path3027"
       inkscape:connector-curvature="0" />
  </g>
  <g
     inkscape:groupmode="layer"
     id="layer2"
     inkscape:label="BackGround"
     style="display:inline">
    <path
       style="fill:none;stroke:#000000;stroke-width:1px;stroke-linecap:butt;stroke-linejoin:miter;stroke-opacity:1"
       d="m 1.6409546,3002.7212 2996.7179454,0 -0.3589,-872.359 -2.75,5.5 -8,5.5 -20,7.5 -28.75,8.25 -33.5,7 -29,4.75 -36.5,4 -66.75,4.75 -76.25,1.5 -68.5,1.75 -113,4.75 -125,3.75 -299.2654,-8.8876 -223.9899,-7.234 -293.7857,-8.2459 120.2082,-95.813 -63.2861,57.9828 -22.9809,17.6777 -33.9412,20.1525 -38.8908,12.7279 -63.9932,12.3744 -62.2254,4.5962 -60.8112,0 -56.5685,-2.1213 -51.6188,-3.8891 -59.7505,-7.0711 -65.4074,-11.3137 -74.5998,-15.5563 L 989.94949,2142.986 884,2110.3622 l -84,-35 -89,-46 -99,-73 -73,-83 -28,-29 -29,-20 -32,-6 -40,-8 -39.5,4.5 -63,16.5 -48,23 -43.5,25.5 -64,45.5 -76,66 -57.5,58.5 -17.4393398,20.0266 z"
       id="path3029"
       inkscape:connector-curvature="0"
       rho="2100"
       c1="4000"
       c2="2000"
       sodipodi:nodetypes="cccccccccccccccccccccccccccccccccccccccccccccccccc" />
    <path
       style="fill:none;stroke:#000000;stroke-width:1px;stroke-linecap:butt;stroke-linejoin:miter;stroke-opacity:1"
       d="M 1.0606602,2069.8888 114.5513,1954.6304 216,1879.8622 l 91.5,-48.5 102.5,-21 72,14 72.37172,58.1433 11.3137,26.8701 96.16653,83.4386 49.14805,36.548 89,46 84,35 105.94949,32.6238 46.80051,-171.7488 -52.45736,-15.1926 -45.25484,-27.5771 -21.2132,-16.2635 -27.57716,-34.6482 -29.69849,-57.2757 -15.55635,-56.5685 -5.3676,-24.8494 31.53055,-75.5598 72.12489,-124.4508 107.48026,-158.3919 -59.39699,32.5269 -106.06602,29.6985 -144.24978,22.6274 -196.57569,9.8995 -200.81832,-2.8284 -210.71783,-15.5563 -130.1076429,-11.3137 z"
       id="path3031"
       inkscape:connector-curvature="0"
       c1="4500"
       c2="2100"
       rho="2500" />
    <path
       style="fill:none;stroke:#000000;stroke-width:1px;stroke-linecap:butt;stroke-linejoin:miter;stroke-opacity:1"
       d="m 989.94949,2142.986 183.84781,37.9186 108.8944,11.3137 187.3833,-2.1213 102.884,-25.1023 56.9221,-37.8302 63.2861,-57.9828 58.4725,-64.5609 175.9334,-206.9681 89.0954,-87.6812 63.6396,-45.2548 48.0833,-14.1422 39.598,9.8995 57.9827,73.5391 31.1127,36.7696 62.2254,56.5685 123.0366,83.4386 165.463,90.5097 171.1198,77.0747 133.8945,44.3124 65.6838,11.8137 19.4921,-4.1381 0.1327,-454.3319 0,0 -28.2842,7.0711 -209.3036,-48.0832 -298.3991,-94.7523 -190.9188,-73.5391 -210.7178,-98.995 -94.7524,-57.9827 -72.1248,-46.6691 -77.7818,-32.5269 c 0,0 -114.4969,-18.3847 -132.9361,-18.3847 l -67.8822,-10e-5 -117.3797,14.1422 -77.7818,14.1421 -154.1493,45.2548 -159.8061,67.8823 -55.1543,26.87 -107.48026,158.3919 -72.12489,124.4508 -31.53055,75.5598 250.7337,-139.1994 172.534,-76.3675 130.1077,-46.669 137.1787,-16.9706 50.283,7.7817 37.3982,13.4315 32.5269,36.7695 11.3137,46.6691 c 0,0 -12.7279,60.8112 -16.9705,63.6396 -4.2427,2.8284 -48.0833,69.2965 -48.0833,69.2965 l -77.7817,84.8528 -98.995,73.5391 -118.7939,67.8822 -117.3798,42.4265 -91.9238,8.4852 -55.0229,-3.1922 z"
       id="path3033"
       inkscape:connector-curvature="0"
       sodipodi:nodetypes="ccccccccccccccccccccccccccccccccscccccccccccccccccscccccccc"
       c1="4800"
       c2="2200"
       rho="2200" />
    <path
       style="fill:none;stroke:#000000;stroke-width:1px;stroke-linecap:butt;stroke-linejoin:miter;stroke-opacity:1"
       d="m 2998,2130.3622 -19.4921,4.1381 -65.6838,-11.8137 -133.8945,-44.3124 -171.1198,-77.0747 -165.463,-90.5097 -123.0366,-83.4386 -62.2254,-56.5685 -89.0954,-110.3087 -39.598,-9.8995 -48.0833,14.1422 -63.6396,45.2548 -89.0954,87.6812 c -115.791,134.5156 -228.7577,283.153 -354.6141,367.342 l 443.041,8.3675 374,16 216,-7 161,-5 90,-3.75 110.25,-24.75 20,-7.5 z"
       id="path3035"
       inkscape:connector-curvature="0"
       c1="5200"
       c2="2600"
       rho="3000"
       sodipodi:nodetypes="cccccccccccccccccccccc" />
    <path
       style="fill:none;stroke:#000000;stroke-width:1px;stroke-linecap:butt;stroke-linejoin:miter;stroke-opacity:1;display:inline"
       d="m 839.625,1738.8622 c 106.42071,619.1751 1104.3061,-158.4513 740.8371,-271.4248 0,0 -172.4621,-77.0752 -740.8371,271.4248 z"
       id="path3013-6"
       inkscape:connector-curvature="0"
       sodipodi:nodetypes="cc"
       c1="5000"
       c2="2300"
       rho="3500" />
    <path
       style="fill:none;stroke:#000000;stroke-width:1px;stroke-linecap:butt;stroke-linejoin:miter;stroke-opacity:1;display:inline"
       d="m 2404.1631,920.84032 c 251.73,9.89949 240.4162,149.90668 240.4162,149.90668 l -381.8376,-11.3138 c 0,0 -125.5058,100.6319 21.2132,106.066 152.7351,5.657 567.0996,50.9118 405.8793,83.4387 -161.2204,32.5269 -550.1291,69.2964 -630.7393,-49.4975 -80.6101,-118.7939 120.9149,-242.41563 179.6052,-254.55845 41.0121,-8.48528 165.463,-24.04163 165.463,-24.04163 z"
       id="path3023-6"
       inkscape:connector-curvature="0"
       sodipodi:nodetypes="cccssssc"
       c1="4400"
       c2="2000"
       rho="4000" />
    <path
       style="fill:none;stroke:#000000;stroke-width:1px;stroke-linecap:butt;stroke-linejoin:miter;stroke-opacity:1;display:inline"
       d="m 1.80924,1244.8999 c 0,0 1724.69006,-241.9769 1172.69016,-485.97695 L 953.17994,840.23015 698.6215,896.79869 328.09755,946.29616 0,964.36218 z"
       id="path3005-9"
       inkscape:connector-curvature="0"
       sodipodi:nodetypes="ccccccc"
       c1="5500"
       c2="2550"
       rho="5050" />
    <path
       style="fill:none;stroke:#000000;stroke-width:1px;stroke-linecap:butt;stroke-linejoin:miter;stroke-opacity:1"
       d="M 2.8284271,1445.5136 1.80924,1244.8999 244,1208.3622 l 216,-44 158,-32 150,-34 126,-28 224,-78 136,-70 30,-52.00002 -10,-42 -36,-38 -63.5006,-31.43923 34.8702,-16.041 31.6706,-14.18019 77.9547,-30.40203 65.0051,-25.93755 90,-16 106,-12 98,0 116,26 96,56 50,66 22,6 32,4 104,-48 176,-94 82,-22 40,2 54,26 42,6 66,-24 62,-38 67.0058,-71.5363 94.9942,-2.4637 134,-8 82.25,-10.25 -0.1173,1157.91812 -28.2842,7.0711 -159.8485,-34.7392 -318,-100 -220.773,-81.6354 -210.7178,-98.995 59.4908,-122.3696 36,13 76,16 86,7 158,-3 164,-20 79,-16 8,-8 -4,-10 -21,-7 -67,-17 -136,-19 -232,-18 -33,-6 -14,-13 -6,-23 11,-22 19,-20 18.7417,-19.929 381.8376,11.3138 -1.5793,-24.3848 -21,-40 -21,-26.00002 -43,-29 -83,-26 -70.8369,-4.52186 -176.1631,24.52186 -46,21 -57,39.00002 -54,55 -25,41 -8,47 22,55 40,33 19.9061,9.0401 -59.3969,122.3295 L 1968,1310.3622 1893.632,1263.08 1815.8502,1230.5531 1696,1210.3622 l -160,6 -156,32 -170,58 -159.2393,74.0975 -59.39699,32.5269 -106.06602,29.6985 -144.24978,22.6274 -196.57569,9.8995 L 346,1472.3622 l -152,-12 z"
       id="path3091"
       inkscape:connector-curvature="0"
       c1="5100"
       c2="2100"
       rho="3800"
       sodipodi:nodetypes="cccccccccccccccccccccccccccccccccccccccccccccccccccccccccccccccccccccccccccccccccccccccccccccc" />
    <path
       style="fill:none;stroke:#000000;stroke-width:1px;stroke-linecap:butt;stroke-linejoin:miter;stroke-opacity:1;display:inline"
       d="m 1.75,433.11218 c 0,0 860.92027,-254.73398 1370.0372,-39.77352 509.1168,214.96046 1250.1647,-158.39191 1295.4196,-118.79394 45.2548,39.59798 19.799,264.28116 19.799,264.28116 0,0 301.7442,-7.7137 311.2442,-20.7137 l -186.25,16.25 -124.9942,4.4637 -67.0058,71.5363 -62,38 -66,24 -42,-6 -54,-26 -40,-2 -82,22 -280,142 -54,-10 -50,-66 -96,-56 -116,-26 -98,0 -196,28 L 1050.8284,809.31193 881.97918,859.55457 751.64961,888.32349 600,908.36218 l -170,22 -214,20 -216,14 z"
       id="path3027-8"
       inkscape:connector-curvature="0"
       c2="2500"
       c1="5000"
       rho="2900"
       sodipodi:nodetypes="csscccccccccccccccccccccccccc" />
    <path
       style="fill:none;stroke:#000000;stroke-width:1px;stroke-linecap:butt;stroke-linejoin:miter;stroke-opacity:1"
       d="m 2998.25,518.11218 0.1089,-512.1089695 -2996.7179454,0 L 1.75,433.11218 l 125.25,-33.75 229,-46 230,-33 161,-11 172,-2 177,14 133,25 127,40 65,26 83,24 87,13 19,3 67,7 111,0 119,-9 137,-19 140,-30 243,-66 189,-57 45,-8 13,9 14,46 7,55 -3,104 -4.9942,54.4637 183.9942,-9.4637 z"
       id="path3111"
       inkscape:connector-curvature="0"
       c1="4700"
       c2="2300"
       rho="4100" />
  </g>
</svg>
