<?xml version="1.0" encoding="UTF-8" standalone="no"?>
<!-- Created with Inkscape (http://www.inkscape.org/) -->

<svg
   xmlns:dc="http://purl.org/dc/elements/1.1/"
   xmlns:cc="http://creativecommons.org/ns#"
   xmlns:rdf="http://www.w3.org/1999/02/22-rdf-syntax-ns#"
   xmlns:svg="http://www.w3.org/2000/svg"
   xmlns="http://www.w3.org/2000/svg"
   xmlns:sodipodi="http://sodipodi.sourceforge.net/DTD/sodipodi-0.dtd"
   xmlns:inkscape="http://www.inkscape.org/namespaces/inkscape"
   width="744.09448819"
   height="1052.3622047"
   id="svg2"
   version="1.1"
   inkscape:version="0.48.4 r9939"
   sodipodi:docname="plasts2.svg">
  <metadata
     id="metadata17">
    <rdf:RDF>
      <cc:Work
         rdf:about="">
        <dc:format>image/svg+xml</dc:format>
        <dc:type
           rdf:resource="http://purl.org/dc/dcmitype/StillImage" />
        <dc:title></dc:title>
      </cc:Work>
    </rdf:RDF>
  </metadata>
  <defs
     id="defs4" />
  <sodipodi:namedview
     id="base"
     pagecolor="#ffffff"
     bordercolor="#666666"
     borderopacity="1.0"
     inkscape:pageopacity="0.0"
     inkscape:pageshadow="2"
     inkscape:zoom="0.1767767"
     inkscape:cx="1832.9133"
     inkscape:cy="-663.23902"
     inkscape:document-units="px"
     inkscape:current-layer="layer1"
     showgrid="false"
     inkscape:object-nodes="false"
     inkscape:window-width="1366"
     inkscape:window-height="718"
     inkscape:window-x="0"
     inkscape:window-y="0"
     inkscape:window-maximized="1"
     inkscape:snap-smooth-nodes="true"
     inkscape:snap-bbox="true"
     inkscape:snap-grids="true" />
  <g
     inkscape:label="Contours"
     inkscape:groupmode="layer"
     id="layer1"
     style="display:inline">
    <path
       style="fill:none;stroke:#000000;stroke-width:1px;stroke-linecap:butt;stroke-linejoin:miter;stroke-opacity:1"
       d="m 579.4097,1965.1364 c 106.42071,619.1751 1104.3061,-158.4513 740.8371,-271.4248 0,0 -172.4621,-77.0752 -740.8371,271.4248 z"
       id="path3013"
       inkscape:connector-curvature="0"
       sodipodi:nodetypes="cc" />
    <path
       style="fill:none;stroke:#000000;stroke-width:1px;stroke-linecap:butt;stroke-linejoin:miter;stroke-opacity:1"
       d="m 2008,1288.3622 c -188,468 800,760 800,760 0,0 316,-904 -372,-716 -132,24 -428,-44 -428,-44 z"
       id="path3036"
       inkscape:connector-curvature="0" />
    <path
       style="fill:none;stroke:#000000;stroke-width:1px;stroke-linecap:butt;stroke-linejoin:miter;stroke-opacity:1"
       d="M 1240,864.36218 209.53035,1635.0181 c 0,0 -177.53035,209.3441 18.46965,241.3441 196,32 908,-652 1396,-452 488,200 0,-416 236,-452.00002 236,-36 680.8573,3.88224 751.2162,75.88222 70.3589,72.0001 172.1822,-35.4802 172.1822,-35.4802 l 0,-143.02944 c 0,0 -305.0394,-306.50969 -1543.3984,-5.37258 z"
       id="path3038"
       inkscape:connector-curvature="0"
       sodipodi:nodetypes="ccssssccc" />
    <rect
       style="fill:none;stroke:#000000;stroke-width:0.60805345;display:inline"
       id="rect3907"
       width="2999.3918"
       height="2999.3918"
       x="0.30402672"
       y="4.6663103" />
  </g>
  <g
     inkscape:groupmode="layer"
     id="layer2"
     inkscape:label="BackGround"
     style="display:inline">
    <path
       style="fill:none;stroke:#000000;stroke-width:1px;stroke-linecap:butt;stroke-linejoin:miter;stroke-opacity:1;display:inline"
       d="M 577.93286,1965.2819 C 684.35357,2584.457 1682.239,1806.8306 1318.77,1693.8571 c 0,0 -172.4621,-77.0752 -740.83714,271.4248 z"
       id="path3013-8"
       inkscape:connector-curvature="0"
       sodipodi:nodetypes="cc"
       c1="4000"
       c2="2000"
       rho="2500" />
    <path
       style="fill:none;stroke:#000000;stroke-width:1px;stroke-linecap:butt;stroke-linejoin:miter;stroke-opacity:1;display:inline"
       d="m 2008.1225,1288.9593 c -188,468 800,760 800,760 0,0 316,-904 -372,-716 -132,24 -428,-44 -428,-44 z"
       id="path3036-6"
       inkscape:connector-curvature="0"
       c1="4500"
       c2="2250"
       rho="2400" />
    <path
       style="fill:none;stroke:#000000;stroke-width:1px;stroke-linecap:butt;stroke-linejoin:miter;stroke-opacity:1;display:inline"
       d="M 1240,864.3622 210.94456,1635.0181 c 0,0 -178.94456,209.3441 17.05544,241.3441 196,32 908,-652 1395.9999,-452 488,200 0,-416 236,-452 236,-36 680.8574,3.8822 751.2163,75.8822 70.3589,72 171.475,-34.7731 171.475,-34.7731 l 0.7071,-144.44362 c 0,0 -305.0394,-305.80258 -1543.3983,-4.66548 z"
       id="path3038-5"
       inkscape:connector-curvature="0"
       c1="4300"
       c2="2100"
       rho="2600"
       sodipodi:nodetypes="ccssssccc" />
  </g>
</svg>
